{"glyphs":{"0":{"ha":833,"x_min":0,"x_max":0,"o":""},"1":{"ha":833,"x_min":0,"x_max":0,"o":""},"2":{"ha":833,"x_min":0,"x_max":0,"o":""},"3":{"ha":833,"x_min":0,"x_max":0,"o":""},"4":{"ha":833,"x_min":0,"x_max":0,"o":""},"5":{"ha":833,"x_min":0,"x_max":0,"o":""},"6":{"ha":833,"x_min":0,"x_max":0,"o":""},"7":{"ha":833,"x_min":0,"x_max":0,"o":""},"8":{"ha":833,"x_min":0,"x_max":0,"o":""},"9":{"ha":833,"x_min":0,"x_max":0,"o":""},"A":{"ha":578,"x_min":0,"x_max":0,"o":"m 225 1285 l -69 -1 l 106 -1 l 139 136 l 363 136 l 397 -1 l 572 -1 l 278 1285 z m 332 289 l 169 289 l 243 629 l 260 629 z "},"B":{"ha":592,"x_min":0,"x_max":0,"o":"m 35 1289 l 35 0 l 222 0 b 532 264 464 15 519 85 b 476 565 543 415 524 508 b 532 897 514 626 529 729 b 35 1289 540 1364 351 1289 z m 219 656 b 219 1101 215 656 214 1101 b 368 1008 368 1121 368 1008 l 368 736 b 219 656 363 718 358 650 z m 222 181 l 222 468 b 368 374 368 486 368 374 l 368 261 b 222 181 363 244 358 176 z "},"C":{"ha":539,"x_min":0,"x_max":0,"o":"m 297 -17 b 508 106 396 -17 467 36 l 374 240 b 297 178 371 224 343 178 b 221 240 251 178 224 224 l 221 1061 b 297 1122 224 1076 251 1122 b 374 1061 343 1122 371 1076 l 508 1196 b 297 1317 467 1264 396 1317 b 44 1064 139 1317 53 1182 l 44 236 b 297 -17 53 118 139 -17 z "},"D":{"ha":590,"x_min":0,"x_max":0,"o":"m 210 0 l 29 0 l 29 1296 l 208 1296 b 535 910 422 1296 536 1268 l 533 340 b 210 0 532 26 413 0 z m 210 1097 l 210 200 b 364 299 364 179 364 299 l 367 381 l 367 943 l 364 999 b 210 1097 364 999 365 1117 z "},"E":{"ha":601,"x_min":0,"x_max":0,"o":"m 56 1285 l 56 0 l 546 0 l 546 186 l 236 186 l 236 563 l 499 563 l 499 757 l 236 757 l 236 1099 l 546 1099 l 546 1285 z "},"F":{"ha":544,"x_min":0,"x_max":0,"o":"m 28 1285 l 28 0 l 208 0 l 208 563 l 472 563 l 472 758 l 208 758 l 208 1099 l 517 1099 l 517 1285 z "},"G":{"ha":585,"x_min":0,"x_max":0,"o":"m 546 228 l 546 772 l 292 772 l 292 593 l 369 593 l 369 232 b 292 171 367 215 338 171 b 215 232 246 171 218 215 l 215 1067 b 292 1128 218 1082 246 1128 b 369 1067 338 1128 367 1082 l 369 972 l 546 972 l 546 1071 b 292 1324 536 1189 450 1324 b 39 1071 135 1324 49 1189 l 39 228 b 292 -25 49 110 135 -25 b 546 228 450 -25 536 110 z "},"H":{"ha":578,"x_min":0,"x_max":0,"o":"m 31 1286 l 31 1 l 211 1 l 211 569 l 368 569 l 368 1 l 547 1 l 547 1286 l 368 1286 l 368 767 l 211 767 l 211 1286 z "},"I":{"ha":265,"x_min":0,"x_max":0,"o":"m 42 0 l 224 0 l 224 1285 l 42 1285 z "},"J":{"ha":592,"x_min":0,"x_max":0,"o":"m 289 0 b 535 343 476 0 535 147 l 535 1094 l 536 1282 l 353 1282 l 353 354 b 274 186 353 304 351 185 b 154 351 179 188 160 285 l 0 282 b 289 0 3 181 65 0 z "},"K":{"ha":624,"x_min":0,"x_max":0,"o":"m 28 1285 l 28 0 l 204 0 l 204 303 l 256 431 l 417 0 l 596 0 l 347 663 l 596 1285 l 417 1285 l 204 756 l 204 1285 z "},"L":{"ha":536,"x_min":0,"x_max":0,"o":"m 28 1286 l 28 0 l 522 0 l 522 189 l 208 189 l 208 1286 z "},"M":{"ha":751,"x_min":0,"x_max":0,"o":"m 42 1285 l 42 0 l 217 0 l 217 619 l 335 168 l 388 168 l 507 622 l 507 0 l 682 0 l 682 1285 l 507 1285 l 369 654 l 353 654 l 217 1283 l 217 1285 z "},"N":{"ha":575,"x_min":0,"x_max":0,"o":"m 29 0 l 201 0 l 201 597 l 346 0 l 518 0 l 518 1285 l 346 1285 l 346 689 l 203 1285 l 31 1285 z "},"O":{"ha":572,"x_min":0,"x_max":0,"o":"m 275 -35 b 528 218 433 -35 519 100 l 528 1061 b 275 1314 519 1179 433 1314 b 22 1061 117 1314 31 1179 l 22 218 b 275 -35 31 100 117 -35 z m 275 160 b 199 222 229 160 201 206 l 199 1056 b 275 1118 201 1072 229 1118 b 351 1056 321 1118 349 1072 l 351 222 b 275 160 349 206 321 160 z "},"P":{"ha":558,"x_min":0,"x_max":0,"o":"m 14 1285 l 14 0 l 194 0 l 194 422 b 517 863 432 421 513 465 b 14 1285 522 1363 343 1285 z m 192 611 b 192 1089 188 611 186 1089 b 346 990 346 1108 346 990 l 346 696 b 192 611 340 676 335 604 z "},"Q":{"ha":636,"x_min":0,"x_max":0,"o":"m 31 1058 l 31 229 b 283 -24 39 111 125 -24 b 418 15 336 -24 381 -8 l 432 -8 l 606 -8 l 518 147 b 536 229 528 174 533 201 l 536 1058 b 283 1311 528 1176 442 1311 b 31 1058 125 1311 39 1176 z m 207 235 l 207 1054 b 283 1117 210 1071 238 1117 b 360 1054 329 1117 357 1071 l 360 263 l 276 263 l 321 183 b 283 172 311 176 297 172 b 207 235 238 172 210 218 z "},"R":{"ha":608,"x_min":0,"x_max":0,"o":"m 28 1285 l 28 0 l 204 0 l 204 443 b 301 447 240 443 274 444 l 407 0 l 581 0 l 463 535 b 518 875 501 597 517 701 b 28 1285 522 1336 351 1285 z m 201 629 b 201 1097 197 629 196 1096 b 353 1001 354 1117 353 1001 l 353 711 b 201 629 349 693 343 624 z "},"S":{"ha":567,"x_min":0,"x_max":0,"o":"m 289 -7 b 535 338 475 -7 540 217 b 521 411 533 367 528 393 b 396 642 478 522 419 604 b 315 761 361 697 315 761 b 179 972 258 838 222 892 b 171 1058 168 993 158 1025 b 239 1114 182 1088 210 1111 b 353 1051 286 1118 311 1096 l 482 1164 b 229 1303 449 1231 332 1311 b 17 1163 132 1294 49 1235 b 6 938 -15 1089 -21 1021 b 349 360 56 799 285 575 b 288 178 360 322 374 176 b 153 344 193 179 160 279 l -1 276 b 289 -7 1 174 64 -7 z "},"T":{"ha":517,"x_min":0,"x_max":0,"o":"m 169 1099 l 169 0 l 347 0 l 347 1099 l 503 1099 l 503 1285 l 14 1285 l 14 1099 z "},"U":{"ha":575,"x_min":0,"x_max":0,"o":"m 281 -21 b 533 232 439 -21 525 114 l 533 1285 l 357 1285 l 357 236 b 281 175 354 219 326 175 b 204 236 235 175 207 219 l 204 1285 l 28 1285 l 28 232 b 281 -21 36 114 122 -21 z "},"V":{"ha":675,"x_min":0,"x_max":0,"o":"m 14 1283 l 311 0 l 364 0 l 661 1283 l 485 1283 l 346 661 l 329 661 l 190 1283 z "},"W":{"ha":1003,"x_min":0,"x_max":0,"o":"m 706 -7 l 1003 1278 l 826 1278 l 688 654 l 671 654 l 561 1076 l 442 1076 l 332 654 l 315 654 l 176 1278 l 0 1278 l 297 -7 l 350 -7 l 501 656 l 654 -7 z "},"X":{"ha":589,"x_min":0,"x_max":0,"o":"m 379 651 l 575 1285 l 397 1285 l 292 947 l 192 1285 l 14 1285 l 206 643 l 14 0 l 192 0 l 294 344 l 396 0 l 574 0 z "},"Y":{"ha":668,"x_min":0,"x_max":0,"o":"m 243 610 l 243 0 l 422 0 l 422 610 l 424 610 l 654 1285 l 479 1285 l 335 854 l 189 1285 l 14 1285 z "},"Z":{"ha":590,"x_min":0,"x_max":0,"o":"m 331 1100 l 14 0 l 539 0 l 539 185 l 260 185 l 576 1285 l 51 1285 l 51 1100 z "},"a":{"ha":833,"x_min":0,"x_max":0,"o":""},"b":{"ha":833,"x_min":0,"x_max":0,"o":""},"c":{"ha":833,"x_min":0,"x_max":0,"o":""},"d":{"ha":833,"x_min":0,"x_max":0,"o":""},"e":{"ha":833,"x_min":0,"x_max":0,"o":""},"f":{"ha":833,"x_min":0,"x_max":0,"o":""},"g":{"ha":833,"x_min":0,"x_max":0,"o":""},"h":{"ha":833,"x_min":0,"x_max":0,"o":""},"i":{"ha":833,"x_min":0,"x_max":0,"o":""},"j":{"ha":833,"x_min":0,"x_max":0,"o":""},"k":{"ha":833,"x_min":0,"x_max":0,"o":""},"l":{"ha":833,"x_min":0,"x_max":0,"o":""},"m":{"ha":833,"x_min":0,"x_max":0,"o":""},"n":{"ha":833,"x_min":0,"x_max":0,"o":""},"o":{"ha":833,"x_min":0,"x_max":0,"o":""},"p":{"ha":833,"x_min":0,"x_max":0,"o":""},"q":{"ha":833,"x_min":0,"x_max":0,"o":""},"r":{"ha":833,"x_min":0,"x_max":0,"o":""},"s":{"ha":833,"x_min":0,"x_max":0,"o":""},"t":{"ha":833,"x_min":0,"x_max":0,"o":""},"u":{"ha":833,"x_min":0,"x_max":0,"o":""},"v":{"ha":833,"x_min":0,"x_max":0,"o":""},"w":{"ha":833,"x_min":0,"x_max":0,"o":""},"x":{"ha":833,"x_min":0,"x_max":0,"o":""},"y":{"ha":833,"x_min":0,"x_max":0,"o":""},"z":{"ha":833,"x_min":0,"x_max":0,"o":""},".":{"ha":246,"x_min":0,"x_max":0,"o":"m 28 96 b 138 204 28 156 76 204 b 246 96 197 204 246 156 b 138 -14 246 35 197 -14 b 28 96 76 -14 28 35 z "},",":{"ha":285,"x_min":0,"x_max":0,"o":"m 106 215 l 0 -82 l 179 -82 l 285 215 z "},"!":{"ha":246,"x_min":0,"x_max":0,"o":"m 200 279 l 214 1313 l 33 1313 l 47 279 z m 14 74 b 124 182 14 133 63 182 b 232 74 183 182 232 133 b 124 -36 232 13 183 -36 b 14 74 63 -36 14 13 z "},"/":{"ha":563,"x_min":0,"x_max":0,"o":"m 369 1294 l 0 -4 l 193 -4 l 563 1294 z "},"-":{"ha":381,"x_min":0,"x_max":0,"o":"m 381 710 l 0 710 l 0 529 l 381 529 z "},"'":{"ha":340,"x_min":0,"x_max":0,"o":"m 133 1283 l 28 986 l 207 986 l 313 1283 z "}," ":{"ha":347,"x_min":0,"x_max":0,"o":""},"&":{"ha":833,"x_min":0,"x_max":0,"o":""}}}
